<?xml version="1.0" encoding="UTF-8" standalone="no"?>
<svg width="227.012mm" height="200.554mm"
 xmlns="http://www.w3.org/2000/svg" xmlns:xlink="http://www.w3.org/1999/xlink"  version="1.2" baseProfile="tiny">
<title>bubble</title>
<desc>Rendered by Tableau</desc>
<defs>
</defs>
<g fill="none" stroke="black" stroke-width="1" fill-rule="evenodd" stroke-linecap="square" stroke-linejoin="bevel" >

<g >
<g fill="#ffffff" fill-opacity="1" stroke="none" transform="matrix(1,0,0,1,0,0)"
font-family="Benton Sans Book" font-size="13.3333" font-weight="400" font-style="normal" 
>
<rect x="0" y="0" width="858" height="758"/>
</g>
</g>

<g >
<g fill="#ffffff" fill-opacity="1" stroke="none" transform="matrix(1,0,0,1,0,0)"
font-family="Benton Sans Book" font-size="13.3333" font-weight="400" font-style="normal" 
>
<rect x="0" y="50" width="708" height="708"/>
</g>
</g>

<clipPath id ="clip1" >
<rect x="0" y="0" height="709" width="709" transform="matrix(1,0,0,1,0,50)" />
</clipPath>
<g  clip-path="url(#clip1)" 
>
<g fill="none" stroke="#000000" stroke-opacity="1" stroke-width="1" stroke-linecap="square" stroke-linejoin="bevel" transform="matrix(1,0,0,1,0,50)"
font-family="Benton Sans Book" font-size="13.3333" font-weight="400" font-style="normal" 
>
</g>
</g>

<clipPath id ="clip2" >
<rect x="0" y="0" height="709" width="709" transform="matrix(1,0,0,1,0,50)" />
</clipPath>
<g  clip-path="url(#clip2)" 
>
<g fill="none" stroke="#000000" stroke-opacity="1" stroke-width="1" stroke-linecap="square" stroke-linejoin="bevel" transform="matrix(1,0,0,1,0,50)"
font-family="Benton Sans Book" font-size="13.3333" font-weight="400" font-style="normal" 
>
</g>
</g>

<g  clip-path="url(#clip2)" 
>
<g fill="#ffffff" fill-opacity="1" stroke="none" transform="matrix(1,0,0,1,0,50)"
font-family="Benton Sans Book" font-size="13.3333" font-weight="400" font-style="normal" 
>
<rect x="0" y="0" width="709" height="709"/>
</g>
</g>

<g  clip-path="url(#clip2)" 
>
<g fill="#ffffff" fill-opacity="1" stroke="none" transform="matrix(1,0,0,1,0,50)"
font-family="Benton Sans Book" font-size="13.3333" font-weight="400" font-style="normal" 
>
<rect x="0" y="0" width="709" height="709"/>
</g>
</g>

<clipPath id ="clip3" >
<rect x="0" y="0" height="709" width="708" transform="matrix(1,0,0,1,0,50)" />
</clipPath>
<g  clip-path="url(#clip3)" 
>
<g fill="none" stroke="#000000" stroke-opacity="1" stroke-width="1" stroke-linecap="square" stroke-linejoin="bevel" transform="matrix(1,0,0,1,0,50)"
font-family="Benton Sans Book" font-size="13.3333" font-weight="400" font-style="normal" 
>
</g>
</g>

<g  clip-path="url(#clip3)" 
>
<g fill="#ffffff" fill-opacity="1" stroke="none" transform="matrix(1,0,0,1,0,50)"
font-family="Benton Sans Book" font-size="13.3333" font-weight="400" font-style="normal" 
>
<rect x="0" y="0" width="709" height="709"/>
</g>
</g>

<clipPath id ="clip4" >
<rect x="0" y="0" height="709" width="709" transform="matrix(1,0,0,1,0,50)" />
</clipPath>
<g  clip-path="url(#clip4)" 
>
<g fill="none" stroke="#000000" stroke-opacity="1" stroke-width="1" stroke-linecap="square" stroke-linejoin="bevel" transform="matrix(1,0,0,1,0,50)"
font-family="Benton Sans Book" font-size="13.3333" font-weight="400" font-style="normal" 
>
</g>
</g>

<clipPath id ="clip5" >
<rect x="0" y="0" height="709" width="709" transform="matrix(1,0,0,1,0,50)" />
</clipPath>
<g  clip-path="url(#clip5)" 
>
<g fill="none" stroke="#000000" stroke-opacity="1" stroke-width="1" stroke-linecap="square" stroke-linejoin="bevel" transform="matrix(1,0,0,1,0,50)"
font-family="Benton Sans Book" font-size="13.3333" font-weight="400" font-style="normal" 
>
</g>
</g>

<clipPath id ="clip6" >
<rect x="0" y="0" height="709" width="709" transform="matrix(1,0,0,1,0,50)" />
</clipPath>
<g  clip-path="url(#clip6)" 
>
<g fill="none" stroke="#000000" stroke-opacity="1" stroke-width="1" stroke-linecap="square" stroke-linejoin="bevel" transform="matrix(1,0,0,1,0,50)"
font-family="Benton Sans Book" font-size="13.3333" font-weight="400" font-style="normal" 
>
</g>
</g>

<clipPath id ="clip7" >
<rect x="0" y="0" height="709" width="709" transform="matrix(1,0,0,1,0,50)" />
</clipPath>
<g  clip-path="url(#clip7)" 
>
<g fill="none" stroke="#000000" stroke-opacity="1" stroke-width="1" stroke-linecap="square" stroke-linejoin="bevel" transform="matrix(1,0,0,1,0,50)"
font-family="Benton Sans Book" font-size="13.3333" font-weight="400" font-style="normal" 
>
</g>
</g>

<g  clip-path="url(#clip7)" 
>
<g fill="#ffffff" fill-opacity="1" stroke="none" transform="matrix(1,0,0,1,0,50)"
font-family="Benton Sans Book" font-size="13.3333" font-weight="400" font-style="normal" 
>
<rect x="0" y="0" width="709" height="709"/>
</g>
</g>

<clipPath id ="clip8" >
<rect x="0" y="0" height="709" width="709" transform="matrix(1,0,0,1,0,50)" />
</clipPath>
<g  clip-path="url(#clip8)" 
>
<g fill="none" stroke="#000000" stroke-opacity="1" stroke-width="1" stroke-linecap="square" stroke-linejoin="bevel" transform="matrix(1,0,0,1,0,50)"
font-family="Benton Sans Book" font-size="13.3333" font-weight="400" font-style="normal" 
>
</g>
</g>

<clipPath id ="clip9" >
<rect x="0" y="0" height="708" width="708" transform="matrix(1,0,0,1,0,50)" />
</clipPath>
<g  clip-path="url(#clip9)" 
>
<g fill="none" stroke="#000000" stroke-opacity="1" stroke-width="1" stroke-linecap="square" stroke-linejoin="bevel" transform="matrix(1,0,0,1,0,50)"
font-family="Benton Sans Book" font-size="13.3333" font-weight="400" font-style="normal" 
>
</g>
</g>

<clipPath id ="clip10" >
<rect x="0" y="0" height="709" width="709" transform="matrix(1,0,0,1,0,50)" />
</clipPath>
<g  clip-path="url(#clip10)" 
>
<g fill="none" stroke="#000000" stroke-opacity="1" stroke-width="1" stroke-linecap="square" stroke-linejoin="bevel" transform="matrix(1,0,0,1,0,50)"
font-family="Benton Sans Book" font-size="13.3333" font-weight="400" font-style="normal" 
>
</g>
</g>

<clipPath id ="clip11" >
<rect x="0" y="0" height="708" width="708" transform="matrix(1,0,0,1,0,50)" />
</clipPath>
<g  clip-path="url(#clip11)" 
>
<g fill="none" stroke="#000000" stroke-opacity="1" stroke-width="1" stroke-linecap="square" stroke-linejoin="bevel" transform="matrix(1,0,0,1,0,50)"
font-family="Benton Sans Book" font-size="13.3333" font-weight="400" font-style="normal" 
>
</g>
</g>

<clipPath id ="clip12" >
<rect x="0" y="0" height="709" width="709" transform="matrix(1,0,0,1,0,50)" />
</clipPath>
<g  clip-path="url(#clip12)" 
>
<g fill="none" stroke="#000000" stroke-opacity="1" stroke-width="1" stroke-linecap="square" stroke-linejoin="bevel" transform="matrix(1,0,0,1,0,50)"
font-family="Benton Sans Book" font-size="13.3333" font-weight="400" font-style="normal" 
>
</g>
</g>

<clipPath id ="clip13" >
<rect x="0" y="0" height="709" width="709" transform="matrix(1,0,0,1,0,50)" />
</clipPath>
<g  clip-path="url(#clip13)" 
>
<g fill="none" stroke="#000000" stroke-opacity="1" stroke-width="1" stroke-linecap="square" stroke-linejoin="bevel" transform="matrix(1,0,0,1,0,50)"
font-family="Benton Sans Book" font-size="13.3333" font-weight="400" font-style="normal" 
>
</g>
</g>

<clipPath id ="clip14" >
<rect x="0" y="0" height="708" width="708" transform="matrix(1,0,0,1,0,50)" />
</clipPath>
<g  clip-path="url(#clip14)" 
>
<g fill="none" stroke="#000000" stroke-opacity="1" stroke-width="1" stroke-linecap="square" stroke-linejoin="bevel" transform="matrix(1,0,0,1,0,50)"
font-family="Benton Sans Book" font-size="13.3333" font-weight="400" font-style="normal" 
>
</g>
</g>

<g  clip-path="url(#clip14)" 
>
<g fill="#59a14f" fill-opacity="1" stroke="none" transform="matrix(1,0,0,1,0,50)"
font-family="Benton Sans Book" font-size="13.3333" font-weight="400" font-style="normal" 
>
<circle cx="568.534" cy="155.036" r="139.966" />
</g>
</g>

<g  clip-path="url(#clip14)" 
>
<g fill="#76b7b2" fill-opacity="1" stroke="none" transform="matrix(1,0,0,1,0,50)"
font-family="Benton Sans Book" font-size="13.3333" font-weight="400" font-style="normal" 
>
<circle cx="320.842" cy="182.099" r="109.2" />
</g>
</g>

<g  clip-path="url(#clip14)" 
>
<g fill="#e15759" fill-opacity="1" stroke="none" transform="matrix(1,0,0,1,0,50)"
font-family="Benton Sans Book" font-size="13.3333" font-weight="400" font-style="normal" 
>
<circle cx="320.453" cy="588.702" r="105.228" />
</g>
</g>

<g  clip-path="url(#clip14)" 
>
<g fill="#f28e2b" fill-opacity="1" stroke="none" transform="matrix(1,0,0,1,0,50)"
font-family="Benton Sans Book" font-size="13.3333" font-weight="400" font-style="normal" 
>
<circle cx="437.366" cy="387.802" r="127.214" />
</g>
</g>

<g  clip-path="url(#clip14)" 
>
<g fill="#4e79a7" fill-opacity="1" stroke="none" transform="matrix(1,0,0,1,0,50)"
font-family="Benton Sans Book" font-size="13.3333" font-weight="400" font-style="normal" 
>
<circle cx="155.326" cy="387.802" r="154.826" />
</g>
</g>

<clipPath id ="clip15" >
<rect x="0" y="0" height="709" width="709" transform="matrix(1,0,0,1,0,50)" />
</clipPath>
<g  clip-path="url(#clip15)" 
>
<g fill="#4e79a7" fill-opacity="1" stroke="none" transform="matrix(1,0,0,1,0,50)"
font-family="Benton Sans Book" font-size="13.3333" font-weight="400" font-style="normal" 
>
</g>
</g>

<clipPath id ="clip16" >
<rect x="0" y="0" height="708" width="708" transform="matrix(1,0,0,1,0,50)" />
</clipPath>
<g  clip-path="url(#clip16)" 
>
<g fill="#4e79a7" fill-opacity="1" stroke="none" transform="matrix(1,0,0,1,0,50)"
font-family="Benton Sans Book" font-size="13.3333" font-weight="400" font-style="normal" 
>
</g>
</g>

<g  clip-path="url(#clip16)" 
>
<g fill="none" stroke="#ffffff" stroke-opacity="1" stroke-width="1" stroke-linecap="square" stroke-linejoin="bevel" transform="matrix(1,0,0,1,0,50)"
font-family="Arial" font-size="15" font-weight="400" font-style="normal" 
>
<text fill="#ffffff" fill-opacity="1" stroke="none" xml:space="preserve" x="547" y="151" font-family="Arial" font-size="15" font-weight="400" font-style="normal" 
 >Friday</text>
</g>
</g>

<g  clip-path="url(#clip16)" 
>
<g fill="none" stroke="#ffffff" stroke-opacity="1" stroke-width="1" stroke-linecap="square" stroke-linejoin="bevel" transform="matrix(1,0,0,1,0,50)"
font-family="Arial" font-size="15" font-weight="400" font-style="normal" 
>
<text fill="#ffffff" fill-opacity="1" stroke="none" xml:space="preserve" x="555" y="172" font-family="Arial" font-size="15" font-weight="400" font-style="normal" 
 >161</text>
</g>
</g>

<g  clip-path="url(#clip16)" 
>
<g fill="none" stroke="#000000" stroke-opacity="1" stroke-width="1" stroke-linecap="square" stroke-linejoin="bevel" transform="matrix(1,0,0,1,0,50)"
font-family="Arial" font-size="15" font-weight="400" font-style="normal" 
>
<text fill="#000000" fill-opacity="1" stroke="none" xml:space="preserve" x="288" y="178" font-family="Arial" font-size="15" font-weight="400" font-style="normal" 
 >Thursday</text>
</g>
</g>

<g  clip-path="url(#clip16)" 
>
<g fill="none" stroke="#000000" stroke-opacity="1" stroke-width="1" stroke-linecap="square" stroke-linejoin="bevel" transform="matrix(1,0,0,1,0,50)"
font-family="Arial" font-size="15" font-weight="400" font-style="normal" 
>
<text fill="#000000" fill-opacity="1" stroke="none" xml:space="preserve" x="312" y="199" font-family="Arial" font-size="15" font-weight="400" font-style="normal" 
 >98</text>
</g>
</g>

<g  clip-path="url(#clip16)" 
>
<g fill="none" stroke="#ffffff" stroke-opacity="1" stroke-width="1" stroke-linecap="square" stroke-linejoin="bevel" transform="matrix(1,0,0,1,0,50)"
font-family="Arial" font-size="15" font-weight="400" font-style="normal" 
>
<text fill="#ffffff" fill-opacity="1" stroke="none" xml:space="preserve" x="280" y="584" font-family="Arial" font-size="15" font-weight="400" font-style="normal" 
 >Wednesday</text>
</g>
</g>

<g  clip-path="url(#clip16)" 
>
<g fill="none" stroke="#ffffff" stroke-opacity="1" stroke-width="1" stroke-linecap="square" stroke-linejoin="bevel" transform="matrix(1,0,0,1,0,50)"
font-family="Arial" font-size="15" font-weight="400" font-style="normal" 
>
<text fill="#ffffff" fill-opacity="1" stroke="none" xml:space="preserve" x="312" y="605" font-family="Arial" font-size="15" font-weight="400" font-style="normal" 
 >91</text>
</g>
</g>

<g  clip-path="url(#clip16)" 
>
<g fill="none" stroke="#000000" stroke-opacity="1" stroke-width="1" stroke-linecap="square" stroke-linejoin="bevel" transform="matrix(1,0,0,1,0,50)"
font-family="Arial" font-size="15" font-weight="400" font-style="normal" 
>
<text fill="#000000" fill-opacity="1" stroke="none" xml:space="preserve" x="408" y="383" font-family="Arial" font-size="15" font-weight="400" font-style="normal" 
 >Tuesday</text>
</g>
</g>

<g  clip-path="url(#clip16)" 
>
<g fill="none" stroke="#000000" stroke-opacity="1" stroke-width="1" stroke-linecap="square" stroke-linejoin="bevel" transform="matrix(1,0,0,1,0,50)"
font-family="Arial" font-size="15" font-weight="400" font-style="normal" 
>
<text fill="#000000" fill-opacity="1" stroke="none" xml:space="preserve" x="424" y="404" font-family="Arial" font-size="15" font-weight="400" font-style="normal" 
 >133</text>
</g>
</g>

<g  clip-path="url(#clip16)" 
>
<g fill="none" stroke="#ffffff" stroke-opacity="1" stroke-width="1" stroke-linecap="square" stroke-linejoin="bevel" transform="matrix(1,0,0,1,0,50)"
font-family="Arial" font-size="15" font-weight="400" font-style="normal" 
>
<text fill="#ffffff" fill-opacity="1" stroke="none" xml:space="preserve" x="128" y="383" font-family="Arial" font-size="15" font-weight="400" font-style="normal" 
 >Monday</text>
</g>
</g>

<g  clip-path="url(#clip16)" 
>
<g fill="none" stroke="#ffffff" stroke-opacity="1" stroke-width="1" stroke-linecap="square" stroke-linejoin="bevel" transform="matrix(1,0,0,1,0,50)"
font-family="Arial" font-size="15" font-weight="400" font-style="normal" 
>
<text fill="#ffffff" fill-opacity="1" stroke="none" xml:space="preserve" x="142" y="404" font-family="Arial" font-size="15" font-weight="400" font-style="normal" 
 >197</text>
</g>
</g>

<clipPath id ="clip17" >
<rect x="0" y="0" height="709" width="709" transform="matrix(1,0,0,1,0,50)" />
</clipPath>
<g  clip-path="url(#clip17)" 
>
<g fill="none" stroke="#ffffff" stroke-opacity="1" stroke-width="1" stroke-linecap="square" stroke-linejoin="bevel" transform="matrix(1,0,0,1,0,50)"
font-family="Arial" font-size="15" font-weight="400" font-style="normal" 
>
</g>
</g>

<clipPath id ="clip18" >
<rect x="0" y="0" height="709" width="709" transform="matrix(1,0,0,1,0,50)" />
</clipPath>
<g  clip-path="url(#clip18)" 
>
<g fill="none" stroke="#ffffff" stroke-opacity="1" stroke-width="1" stroke-linecap="square" stroke-linejoin="bevel" transform="matrix(1,0,0,1,0,50)"
font-family="Arial" font-size="15" font-weight="400" font-style="normal" 
>
</g>
</g>

<clipPath id ="clip19" >
<rect x="0" y="0" height="708" width="708" transform="matrix(1,0,0,1,0,50)" />
</clipPath>
<g  clip-path="url(#clip19)" 
>
<g fill="none" stroke="#ffffff" stroke-opacity="1" stroke-width="1" stroke-linecap="square" stroke-linejoin="bevel" transform="matrix(1,0,0,1,0,50)"
font-family="Arial" font-size="15" font-weight="400" font-style="normal" 
>
</g>
</g>

<clipPath id ="clip20" >
<rect x="0" y="0" height="709" width="709" transform="matrix(1,0,0,1,0,50)" />
</clipPath>
<g  clip-path="url(#clip20)" 
>
<g fill="none" stroke="#ffffff" stroke-opacity="1" stroke-width="1" stroke-linecap="square" stroke-linejoin="bevel" transform="matrix(1,0,0,1,0,50)"
font-family="Arial" font-size="15" font-weight="400" font-style="normal" 
>
</g>
</g>

<clipPath id ="clip21" >
<rect x="0" y="0" height="708" width="708" transform="matrix(1,0,0,1,0,50)" />
</clipPath>
<g  clip-path="url(#clip21)" 
>
<g fill="none" stroke="#ffffff" stroke-opacity="1" stroke-width="1" stroke-linecap="square" stroke-linejoin="bevel" transform="matrix(1,0,0,1,0,50)"
font-family="Arial" font-size="15" font-weight="400" font-style="normal" 
>
</g>
</g>

<clipPath id ="clip22" >
<rect x="0" y="0" height="709" width="709" transform="matrix(1,0,0,1,0,50)" />
</clipPath>
<g  clip-path="url(#clip22)" 
>
<g fill="none" stroke="#ffffff" stroke-opacity="1" stroke-width="1" stroke-linecap="square" stroke-linejoin="bevel" transform="matrix(1,0,0,1,0,50)"
font-family="Arial" font-size="15" font-weight="400" font-style="normal" 
>
</g>
</g>

<clipPath id ="clip23" >
<rect x="0" y="0" height="709" width="709" transform="matrix(1,0,0,1,0,50)" />
</clipPath>
<g  clip-path="url(#clip23)" 
>
<g fill="none" stroke="#ffffff" stroke-opacity="1" stroke-width="1" stroke-linecap="square" stroke-linejoin="bevel" transform="matrix(1,0,0,1,0,50)"
font-family="Arial" font-size="15" font-weight="400" font-style="normal" 
>
</g>
</g>

<clipPath id ="clip24" >
<rect x="0" y="0" height="708" width="708" transform="matrix(1,0,0,1,0,50)" />
</clipPath>
<g  clip-path="url(#clip24)" 
>
<g fill="none" stroke="#ffffff" stroke-opacity="1" stroke-width="1" stroke-linecap="square" stroke-linejoin="bevel" transform="matrix(1,0,0,1,0,50)"
font-family="Arial" font-size="15" font-weight="400" font-style="normal" 
>
</g>
</g>

<clipPath id ="clip25" >
<rect x="0" y="0" height="709" width="709" transform="matrix(1,0,0,1,0,50)" />
</clipPath>
<g  clip-path="url(#clip25)" 
>
<g fill="none" stroke="#ffffff" stroke-opacity="1" stroke-width="1" stroke-linecap="square" stroke-linejoin="bevel" transform="matrix(1,0,0,1,0,50)"
font-family="Arial" font-size="15" font-weight="400" font-style="normal" 
>
</g>
</g>

<clipPath id ="clip26" >
<rect x="0" y="0" height="708" width="708" transform="matrix(1,0,0,1,0,50)" />
</clipPath>
<g  clip-path="url(#clip26)" 
>
<g fill="none" stroke="#ffffff" stroke-opacity="1" stroke-width="1" stroke-linecap="square" stroke-linejoin="bevel" transform="matrix(1,0,0,1,0,50)"
font-family="Arial" font-size="15" font-weight="400" font-style="normal" 
>
</g>
</g>

<clipPath id ="clip27" >
<rect x="0" y="0" height="709" width="709" transform="matrix(1,0,0,1,0,50)" />
</clipPath>
<g  clip-path="url(#clip27)" 
>
<g fill="none" stroke="#ffffff" stroke-opacity="1" stroke-width="1" stroke-linecap="square" stroke-linejoin="bevel" transform="matrix(1,0,0,1,0,50)"
font-family="Arial" font-size="15" font-weight="400" font-style="normal" 
>
</g>
</g>

<clipPath id ="clip28" >
<rect x="0" y="0" height="709" width="709" transform="matrix(1,0,0,1,0,50)" />
</clipPath>
<g  clip-path="url(#clip28)" 
>
<g fill="none" stroke="#ffffff" stroke-opacity="1" stroke-width="1" stroke-linecap="square" stroke-linejoin="bevel" transform="matrix(1,0,0,1,0,50)"
font-family="Arial" font-size="15" font-weight="400" font-style="normal" 
>
</g>
</g>

<clipPath id ="clip29" >
<rect x="0" y="0" height="708" width="708" transform="matrix(1,0,0,1,0,50)" />
</clipPath>
<g  clip-path="url(#clip29)" 
>
<g fill="none" stroke="#ffffff" stroke-opacity="1" stroke-width="1" stroke-linecap="square" stroke-linejoin="bevel" transform="matrix(1,0,0,1,0,50)"
font-family="Arial" font-size="15" font-weight="400" font-style="normal" 
>
</g>
</g>

<clipPath id ="clip30" >
<rect x="0" y="0" height="709" width="709" transform="matrix(1,0,0,1,0,50)" />
</clipPath>
<g  clip-path="url(#clip30)" 
>
<g fill="none" stroke="#ffffff" stroke-opacity="1" stroke-width="1" stroke-linecap="square" stroke-linejoin="bevel" transform="matrix(1,0,0,1,0,50)"
font-family="Arial" font-size="15" font-weight="400" font-style="normal" 
>
</g>
</g>

<clipPath id ="clip31" >
<rect x="0" y="0" height="708" width="708" transform="matrix(1,0,0,1,0,50)" />
</clipPath>
<g  clip-path="url(#clip31)" 
>
<g fill="none" stroke="#ffffff" stroke-opacity="1" stroke-width="1" stroke-linecap="square" stroke-linejoin="bevel" transform="matrix(1,0,0,1,0,50)"
font-family="Arial" font-size="15" font-weight="400" font-style="normal" 
>
</g>
</g>

<clipPath id ="clip32" >
<rect x="0" y="0" height="709" width="709" transform="matrix(1,0,0,1,0,50)" />
</clipPath>
<g  clip-path="url(#clip32)" 
>
<g fill="none" stroke="#ffffff" stroke-opacity="1" stroke-width="1" stroke-linecap="square" stroke-linejoin="bevel" transform="matrix(1,0,0,1,0,50)"
font-family="Arial" font-size="15" font-weight="400" font-style="normal" 
>
</g>
</g>

<clipPath id ="clip33" >
<rect x="0" y="0" height="709" width="709" transform="matrix(1,0,0,1,0,50)" />
</clipPath>
<g  clip-path="url(#clip33)" 
>
<g fill="none" stroke="#ffffff" stroke-opacity="1" stroke-width="1" stroke-linecap="square" stroke-linejoin="bevel" transform="matrix(1,0,0,1,0,50)"
font-family="Arial" font-size="15" font-weight="400" font-style="normal" 
>
</g>
</g>

<clipPath id ="clip34" >
<rect x="0" y="0" height="708" width="708" transform="matrix(1,0,0,1,0,50)" />
</clipPath>
<g  clip-path="url(#clip34)" 
>
<g fill="none" stroke="#ffffff" stroke-opacity="1" stroke-width="1" stroke-linecap="square" stroke-linejoin="bevel" transform="matrix(1,0,0,1,0,50)"
font-family="Arial" font-size="15" font-weight="400" font-style="normal" 
>
</g>
</g>

<clipPath id ="clip35" >
<rect x="0" y="0" height="709" width="709" transform="matrix(1,0,0,1,0,50)" />
</clipPath>
<g  clip-path="url(#clip35)" 
>
<g fill="none" stroke="#ffffff" stroke-opacity="1" stroke-width="1" stroke-linecap="square" stroke-linejoin="bevel" transform="matrix(1,0,0,1,0,50)"
font-family="Arial" font-size="15" font-weight="400" font-style="normal" 
>
</g>
</g>

<clipPath id ="clip36" >
<rect x="0" y="0" height="708" width="708" transform="matrix(1,0,0,1,0,50)" />
</clipPath>
<g  clip-path="url(#clip36)" 
>
<g fill="none" stroke="#ffffff" stroke-opacity="1" stroke-width="1" stroke-linecap="square" stroke-linejoin="bevel" transform="matrix(1,0,0,1,0,50)"
font-family="Arial" font-size="15" font-weight="400" font-style="normal" 
>
</g>
</g>

<clipPath id ="clip37" >
<rect x="0" y="0" height="709" width="709" transform="matrix(1,0,0,1,0,50)" />
</clipPath>
<g  clip-path="url(#clip37)" 
>
<g fill="none" stroke="#ffffff" stroke-opacity="1" stroke-width="1" stroke-linecap="square" stroke-linejoin="bevel" transform="matrix(1,0,0,1,0,50)"
font-family="Arial" font-size="15" font-weight="400" font-style="normal" 
>
</g>
</g>

<g >
<g fill="none" stroke="#ffffff" stroke-opacity="1" stroke-width="1" stroke-linecap="square" stroke-linejoin="bevel" transform="matrix(1,0,0,1,0,50)"
font-family="Arial" font-size="15" font-weight="400" font-style="normal" 
>
</g>
</g>

<g >
<g fill="none" stroke="#333333" stroke-opacity="1" stroke-width="1" stroke-linecap="square" stroke-linejoin="bevel" transform="matrix(1,0,0,1,0,0)"
font-family="Arial" font-size="25" font-weight="400" font-style="normal" 
>
<text fill="#333333" fill-opacity="1" stroke="none" xml:space="preserve" x="4" y="32" font-family="Arial" font-size="25" font-weight="400" font-style="normal" 
 >Days of leave</text>
</g>
</g>

<clipPath id ="clip38" >
<rect x="0" y="0" height="127" width="140" transform="matrix(1,0,0,1,718,50)" />
</clipPath>
<g  clip-path="url(#clip38)" 
>
<g fill="none" stroke="#333333" stroke-opacity="1" stroke-width="1" stroke-linecap="square" stroke-linejoin="bevel" transform="matrix(1,0,0,1,718,50)"
font-family="Arial" font-size="25" font-weight="400" font-style="normal" 
>
</g>
</g>

<g  clip-path="url(#clip38)" 
>
<g fill="#ffffff" fill-opacity="1" stroke="none" transform="matrix(1,0,0,1,718,50)"
font-family="Arial" font-size="25" font-weight="400" font-style="normal" 
>
<rect x="0" y="0" width="140" height="127"/>
</g>
</g>

<g  clip-path="url(#clip38)" 
>
<g fill="none" stroke="#333333" stroke-opacity="1" stroke-width="1" stroke-linecap="square" stroke-linejoin="bevel" transform="matrix(1,0,0,1,718,50)"
font-family="Arial" font-size="15" font-weight="400" font-style="normal" 
>
<text fill="#333333" fill-opacity="1" stroke="none" xml:space="preserve" x="1" y="16" font-family="Arial" font-size="15" font-weight="400" font-style="normal" 
 >Day</text>
</g>
</g>

<g  clip-path="url(#clip38)" 
>
<g fill="#ffffff" fill-opacity="1" stroke="none" transform="matrix(1,0,0,1,718,50)"
font-family="Arial" font-size="15" font-weight="400" font-style="normal" 
>
<rect x="3" y="21" width="14" height="14"/>
</g>
</g>

<g  clip-path="url(#clip38)" 
>
<g fill="#4e79a7" fill-opacity="1" stroke="none" transform="matrix(1,0,0,1,718,50)"
font-family="Arial" font-size="15" font-weight="400" font-style="normal" 
>
<rect x="3" y="21" width="14" height="14"/>
</g>
</g>

<g  clip-path="url(#clip38)" 
>
<g fill="none" stroke="#333333" stroke-opacity="1" stroke-width="1" stroke-linecap="square" stroke-linejoin="bevel" transform="matrix(1,0,0,1,718,50)"
font-family="Arial" font-size="15" font-weight="400" font-style="normal" 
>
<text fill="#333333" fill-opacity="1" stroke="none" xml:space="preserve" x="22" y="34" font-family="Arial" font-size="15" font-weight="400" font-style="normal" 
 >Monday</text>
</g>
</g>

<g  clip-path="url(#clip38)" 
>
<g fill="#ffffff" fill-opacity="1" stroke="none" transform="matrix(1,0,0,1,718,50)"
font-family="Arial" font-size="15" font-weight="400" font-style="normal" 
>
<rect x="3" y="41" width="14" height="14"/>
</g>
</g>

<g  clip-path="url(#clip38)" 
>
<g fill="#f28e2b" fill-opacity="1" stroke="none" transform="matrix(1,0,0,1,718,50)"
font-family="Arial" font-size="15" font-weight="400" font-style="normal" 
>
<rect x="3" y="41" width="14" height="14"/>
</g>
</g>

<g  clip-path="url(#clip38)" 
>
<g fill="none" stroke="#333333" stroke-opacity="1" stroke-width="1" stroke-linecap="square" stroke-linejoin="bevel" transform="matrix(1,0,0,1,718,50)"
font-family="Arial" font-size="15" font-weight="400" font-style="normal" 
>
<text fill="#333333" fill-opacity="1" stroke="none" xml:space="preserve" x="22" y="54" font-family="Arial" font-size="15" font-weight="400" font-style="normal" 
 >Tuesday</text>
</g>
</g>

<g  clip-path="url(#clip38)" 
>
<g fill="#ffffff" fill-opacity="1" stroke="none" transform="matrix(1,0,0,1,718,50)"
font-family="Arial" font-size="15" font-weight="400" font-style="normal" 
>
<rect x="3" y="61" width="14" height="14"/>
</g>
</g>

<g  clip-path="url(#clip38)" 
>
<g fill="#e15759" fill-opacity="1" stroke="none" transform="matrix(1,0,0,1,718,50)"
font-family="Arial" font-size="15" font-weight="400" font-style="normal" 
>
<rect x="3" y="61" width="14" height="14"/>
</g>
</g>

<g  clip-path="url(#clip38)" 
>
<g fill="none" stroke="#333333" stroke-opacity="1" stroke-width="1" stroke-linecap="square" stroke-linejoin="bevel" transform="matrix(1,0,0,1,718,50)"
font-family="Arial" font-size="15" font-weight="400" font-style="normal" 
>
<text fill="#333333" fill-opacity="1" stroke="none" xml:space="preserve" x="22" y="74" font-family="Arial" font-size="15" font-weight="400" font-style="normal" 
 >Wednesday</text>
</g>
</g>

<g  clip-path="url(#clip38)" 
>
<g fill="#ffffff" fill-opacity="1" stroke="none" transform="matrix(1,0,0,1,718,50)"
font-family="Arial" font-size="15" font-weight="400" font-style="normal" 
>
<rect x="3" y="81" width="14" height="14"/>
</g>
</g>

<g  clip-path="url(#clip38)" 
>
<g fill="#76b7b2" fill-opacity="1" stroke="none" transform="matrix(1,0,0,1,718,50)"
font-family="Arial" font-size="15" font-weight="400" font-style="normal" 
>
<rect x="3" y="81" width="14" height="14"/>
</g>
</g>

<g  clip-path="url(#clip38)" 
>
<g fill="none" stroke="#333333" stroke-opacity="1" stroke-width="1" stroke-linecap="square" stroke-linejoin="bevel" transform="matrix(1,0,0,1,718,50)"
font-family="Arial" font-size="15" font-weight="400" font-style="normal" 
>
<text fill="#333333" fill-opacity="1" stroke="none" xml:space="preserve" x="22" y="94" font-family="Arial" font-size="15" font-weight="400" font-style="normal" 
 >Thursday</text>
</g>
</g>

<g  clip-path="url(#clip38)" 
>
<g fill="#ffffff" fill-opacity="1" stroke="none" transform="matrix(1,0,0,1,718,50)"
font-family="Arial" font-size="15" font-weight="400" font-style="normal" 
>
<rect x="3" y="101" width="14" height="14"/>
</g>
</g>

<g  clip-path="url(#clip38)" 
>
<g fill="#59a14f" fill-opacity="1" stroke="none" transform="matrix(1,0,0,1,718,50)"
font-family="Arial" font-size="15" font-weight="400" font-style="normal" 
>
<rect x="3" y="101" width="14" height="14"/>
</g>
</g>

<g  clip-path="url(#clip38)" 
>
<g fill="none" stroke="#333333" stroke-opacity="1" stroke-width="1" stroke-linecap="square" stroke-linejoin="bevel" transform="matrix(1,0,0,1,718,50)"
font-family="Arial" font-size="15" font-weight="400" font-style="normal" 
>
<text fill="#333333" fill-opacity="1" stroke="none" xml:space="preserve" x="22" y="114" font-family="Arial" font-size="15" font-weight="400" font-style="normal" 
 >Friday</text>
</g>
</g>

<g >
<g fill="none" stroke="#333333" stroke-opacity="1" stroke-width="1" stroke-linecap="square" stroke-linejoin="bevel" transform="matrix(1,0,0,1,718,50)"
font-family="Arial" font-size="15" font-weight="400" font-style="normal" 
>
</g>
</g>
</g>
</svg>
