<?xml version="1.0" encoding="UTF-8" standalone="no"?>
<svg width="404.813mm" height="200.554mm"
 xmlns="http://www.w3.org/2000/svg" xmlns:xlink="http://www.w3.org/1999/xlink"  version="1.2" baseProfile="tiny">
<title>pie</title>
<desc>Rendered by Tableau</desc>
<defs>
</defs>
<g fill="none" stroke="black" stroke-width="1" fill-rule="evenodd" stroke-linecap="square" stroke-linejoin="bevel" >

<g >
<g fill="#ffffff" fill-opacity="1" stroke="none" transform="matrix(1,0,0,1,0,0)"
font-family="Benton Sans Book" font-size="13.3333" font-weight="400" font-style="normal" 
>
<rect x="0" y="0" width="1534" height="758"/>
</g>
</g>

<g >
<g fill="#ffffff" fill-opacity="1" stroke="none" transform="matrix(1,0,0,1,0,0)"
font-family="Benton Sans Book" font-size="13.3333" font-weight="400" font-style="normal" 
>
<rect x="0" y="50" width="1201" height="708"/>
</g>
</g>

<clipPath id ="clip1" >
<rect x="0" y="0" height="709" width="1202" transform="matrix(1,0,0,1,0,50)" />
</clipPath>
<g  clip-path="url(#clip1)" 
>
<g fill="none" stroke="#000000" stroke-opacity="1" stroke-width="1" stroke-linecap="square" stroke-linejoin="bevel" transform="matrix(1,0,0,1,0,50)"
font-family="Benton Sans Book" font-size="13.3333" font-weight="400" font-style="normal" 
>
</g>
</g>

<clipPath id ="clip2" >
<rect x="0" y="0" height="709" width="1202" transform="matrix(1,0,0,1,0,50)" />
</clipPath>
<g  clip-path="url(#clip2)" 
>
<g fill="none" stroke="#000000" stroke-opacity="1" stroke-width="1" stroke-linecap="square" stroke-linejoin="bevel" transform="matrix(1,0,0,1,0,50)"
font-family="Benton Sans Book" font-size="13.3333" font-weight="400" font-style="normal" 
>
</g>
</g>

<g  clip-path="url(#clip2)" 
>
<g fill="#ffffff" fill-opacity="1" stroke="none" transform="matrix(1,0,0,1,0,50)"
font-family="Benton Sans Book" font-size="13.3333" font-weight="400" font-style="normal" 
>
<rect x="0" y="0" width="1202" height="709"/>
</g>
</g>

<g  clip-path="url(#clip2)" 
>
<g fill="#ffffff" fill-opacity="1" stroke="none" transform="matrix(1,0,0,1,0,50)"
font-family="Benton Sans Book" font-size="13.3333" font-weight="400" font-style="normal" 
>
<rect x="0" y="0" width="1202" height="709"/>
</g>
</g>

<clipPath id ="clip3" >
<rect x="0" y="0" height="709" width="1201" transform="matrix(1,0,0,1,0,50)" />
</clipPath>
<g  clip-path="url(#clip3)" 
>
<g fill="none" stroke="#000000" stroke-opacity="1" stroke-width="1" stroke-linecap="square" stroke-linejoin="bevel" transform="matrix(1,0,0,1,0,50)"
font-family="Benton Sans Book" font-size="13.3333" font-weight="400" font-style="normal" 
>
</g>
</g>

<g  clip-path="url(#clip3)" 
>
<g fill="#ffffff" fill-opacity="1" stroke="none" transform="matrix(1,0,0,1,0,50)"
font-family="Benton Sans Book" font-size="13.3333" font-weight="400" font-style="normal" 
>
<rect x="0" y="0" width="1202" height="709"/>
</g>
</g>

<clipPath id ="clip4" >
<rect x="0" y="0" height="709" width="1202" transform="matrix(1,0,0,1,0,50)" />
</clipPath>
<g  clip-path="url(#clip4)" 
>
<g fill="none" stroke="#000000" stroke-opacity="1" stroke-width="1" stroke-linecap="square" stroke-linejoin="bevel" transform="matrix(1,0,0,1,0,50)"
font-family="Benton Sans Book" font-size="13.3333" font-weight="400" font-style="normal" 
>
</g>
</g>

<clipPath id ="clip5" >
<rect x="0" y="0" height="709" width="1202" transform="matrix(1,0,0,1,0,50)" />
</clipPath>
<g  clip-path="url(#clip5)" 
>
<g fill="none" stroke="#000000" stroke-opacity="1" stroke-width="1" stroke-linecap="square" stroke-linejoin="bevel" transform="matrix(1,0,0,1,0,50)"
font-family="Benton Sans Book" font-size="13.3333" font-weight="400" font-style="normal" 
>
</g>
</g>

<clipPath id ="clip6" >
<rect x="0" y="0" height="709" width="1202" transform="matrix(1,0,0,1,0,50)" />
</clipPath>
<g  clip-path="url(#clip6)" 
>
<g fill="none" stroke="#000000" stroke-opacity="1" stroke-width="1" stroke-linecap="square" stroke-linejoin="bevel" transform="matrix(1,0,0,1,0,50)"
font-family="Benton Sans Book" font-size="13.3333" font-weight="400" font-style="normal" 
>
</g>
</g>

<clipPath id ="clip7" >
<rect x="0" y="0" height="709" width="1202" transform="matrix(1,0,0,1,0,50)" />
</clipPath>
<g  clip-path="url(#clip7)" 
>
<g fill="none" stroke="#000000" stroke-opacity="1" stroke-width="1" stroke-linecap="square" stroke-linejoin="bevel" transform="matrix(1,0,0,1,0,50)"
font-family="Benton Sans Book" font-size="13.3333" font-weight="400" font-style="normal" 
>
</g>
</g>

<g  clip-path="url(#clip7)" 
>
<g fill="#ffffff" fill-opacity="1" stroke="none" transform="matrix(1,0,0,1,0,50)"
font-family="Benton Sans Book" font-size="13.3333" font-weight="400" font-style="normal" 
>
<rect x="0" y="0" width="1202" height="709"/>
</g>
</g>

<clipPath id ="clip8" >
<rect x="0" y="0" height="709" width="1202" transform="matrix(1,0,0,1,0,50)" />
</clipPath>
<g  clip-path="url(#clip8)" 
>
<g fill="none" stroke="#000000" stroke-opacity="1" stroke-width="1" stroke-linecap="square" stroke-linejoin="bevel" transform="matrix(1,0,0,1,0,50)"
font-family="Benton Sans Book" font-size="13.3333" font-weight="400" font-style="normal" 
>
</g>
</g>

<clipPath id ="clip9" >
<rect x="0" y="0" height="708" width="1201" transform="matrix(1,0,0,1,0,50)" />
</clipPath>
<g  clip-path="url(#clip9)" 
>
<g fill="none" stroke="#000000" stroke-opacity="1" stroke-width="1" stroke-linecap="square" stroke-linejoin="bevel" transform="matrix(1,0,0,1,0,50)"
font-family="Benton Sans Book" font-size="13.3333" font-weight="400" font-style="normal" 
>
</g>
</g>

<clipPath id ="clip10" >
<rect x="0" y="0" height="709" width="1202" transform="matrix(1,0,0,1,0,50)" />
</clipPath>
<g  clip-path="url(#clip10)" 
>
<g fill="none" stroke="#000000" stroke-opacity="1" stroke-width="1" stroke-linecap="square" stroke-linejoin="bevel" transform="matrix(1,0,0,1,0,50)"
font-family="Benton Sans Book" font-size="13.3333" font-weight="400" font-style="normal" 
>
</g>
</g>

<clipPath id ="clip11" >
<rect x="0" y="0" height="708" width="1201" transform="matrix(1,0,0,1,0,50)" />
</clipPath>
<g  clip-path="url(#clip11)" 
>
<g fill="none" stroke="#000000" stroke-opacity="1" stroke-width="1" stroke-linecap="square" stroke-linejoin="bevel" transform="matrix(1,0,0,1,0,50)"
font-family="Benton Sans Book" font-size="13.3333" font-weight="400" font-style="normal" 
>
</g>
</g>

<clipPath id ="clip12" >
<rect x="0" y="0" height="709" width="1202" transform="matrix(1,0,0,1,0,50)" />
</clipPath>
<g  clip-path="url(#clip12)" 
>
<g fill="none" stroke="#000000" stroke-opacity="1" stroke-width="1" stroke-linecap="square" stroke-linejoin="bevel" transform="matrix(1,0,0,1,0,50)"
font-family="Benton Sans Book" font-size="13.3333" font-weight="400" font-style="normal" 
>
</g>
</g>

<clipPath id ="clip13" >
<rect x="0" y="0" height="709" width="1202" transform="matrix(1,0,0,1,0,50)" />
</clipPath>
<g  clip-path="url(#clip13)" 
>
<g fill="none" stroke="#000000" stroke-opacity="1" stroke-width="1" stroke-linecap="square" stroke-linejoin="bevel" transform="matrix(1,0,0,1,0,50)"
font-family="Benton Sans Book" font-size="13.3333" font-weight="400" font-style="normal" 
>
</g>
</g>

<clipPath id ="clip14" >
<rect x="0" y="0" height="708" width="1201" transform="matrix(1,0,0,1,0,50)" />
</clipPath>
<g  clip-path="url(#clip14)" 
>
<g fill="none" stroke="#000000" stroke-opacity="1" stroke-width="1" stroke-linecap="square" stroke-linejoin="bevel" transform="matrix(1,0,0,1,0,50)"
font-family="Benton Sans Book" font-size="13.3333" font-weight="400" font-style="normal" 
>
</g>
</g>

<g  clip-path="url(#clip14)" 
>
<g fill="#8cd17d" fill-opacity="1" stroke="none" transform="matrix(1,0,0,1,0,50)"
font-family="Benton Sans Book" font-size="13.3333" font-weight="400" font-style="normal" 
>
<path vector-effect="none" fill-rule="evenodd" d="M600.5,354 L600.5,177 C698.254,177 777.5,256.246 777.5,354 C777.5,368.662 775.717,382.908 772.368,396.485 L600.5,354"/>
</g>
</g>

<g  clip-path="url(#clip14)" 
>
<g fill="#f1ce63" fill-opacity="1" stroke="none" transform="matrix(1,0,0,1,0,50)"
font-family="Benton Sans Book" font-size="13.3333" font-weight="400" font-style="normal" 
>
<path vector-effect="none" fill-rule="evenodd" d="M600.5,354 L772.368,396.485 C757.721,455.866 713.162,503.415 655.642,522.242 L600.5,354"/>
</g>
</g>

<g  clip-path="url(#clip14)" 
>
<g fill="#86bcb6" fill-opacity="1" stroke="none" transform="matrix(1,0,0,1,0,50)"
font-family="Benton Sans Book" font-size="13.3333" font-weight="400" font-style="normal" 
>
<path vector-effect="none" fill-rule="evenodd" d="M600.5,354 L655.642,522.242 C638.262,527.93 619.74,531 600.5,531 C551.97,531 508.002,511.469 476.027,479.839 L600.5,354"/>
</g>
</g>

<g  clip-path="url(#clip14)" 
>
<g fill="#b07aa1" fill-opacity="1" stroke="none" transform="matrix(1,0,0,1,0,50)"
font-family="Benton Sans Book" font-size="13.3333" font-weight="400" font-style="normal" 
>
<path vector-effect="none" fill-rule="evenodd" d="M600.5,354 L476.027,479.839 C443.594,447.756 423.5,403.224 423.5,354 C423.5,319.54 433.348,287.38 450.378,260.188 L600.5,354"/>
</g>
</g>

<g  clip-path="url(#clip14)" 
>
<g fill="#4e79a7" fill-opacity="1" stroke="none" transform="matrix(1,0,0,1,0,50)"
font-family="Benton Sans Book" font-size="13.3333" font-weight="400" font-style="normal" 
>
<path vector-effect="none" fill-rule="evenodd" d="M600.5,354 L450.378,260.188 C481.671,210.222 537.206,177 600.5,177 L600.5,354"/>
</g>
</g>

<clipPath id ="clip15" >
<rect x="0" y="0" height="709" width="1202" transform="matrix(1,0,0,1,0,50)" />
</clipPath>
<g  clip-path="url(#clip15)" 
>
<g fill="#4e79a7" fill-opacity="1" stroke="none" transform="matrix(1,0,0,1,0,50)"
font-family="Benton Sans Book" font-size="13.3333" font-weight="400" font-style="normal" 
>
</g>
</g>

<clipPath id ="clip16" >
<rect x="0" y="0" height="708" width="1201" transform="matrix(1,0,0,1,0,50)" />
</clipPath>
<g  clip-path="url(#clip16)" 
>
<g fill="#4e79a7" fill-opacity="1" stroke="none" transform="matrix(1,0,0,1,0,50)"
font-family="Benton Sans Book" font-size="13.3333" font-weight="400" font-style="normal" 
>
</g>
</g>

<g  clip-path="url(#clip16)" 
>
<g fill="none" stroke="#000000" stroke-opacity="1" stroke-width="1" stroke-linecap="square" stroke-linejoin="bevel" transform="matrix(1,0,0,1,0,50)"
font-family="Arial" font-size="15" font-weight="400" font-style="normal" 
>
<text fill="#000000" fill-opacity="1" stroke="none" xml:space="preserve" x="476" y="171" font-family="Arial" font-size="15" font-weight="400" font-style="normal" 
 >DS41</text>
</g>
</g>

<g  clip-path="url(#clip16)" 
>
<g fill="none" stroke="#000000" stroke-opacity="1" stroke-width="1" stroke-linecap="square" stroke-linejoin="bevel" transform="matrix(1,0,0,1,0,50)"
font-family="Arial" font-size="15" font-weight="400" font-style="normal" 
>
<text fill="#000000" fill-opacity="1" stroke="none" xml:space="preserve" x="485" y="192" font-family="Arial" font-size="15" font-weight="400" font-style="normal" 
 >24</text>
</g>
</g>

<g  clip-path="url(#clip16)" 
>
<g fill="none" stroke="#000000" stroke-opacity="1" stroke-width="1" stroke-linecap="square" stroke-linejoin="bevel" transform="matrix(1,0,0,1,0,50)"
font-family="Arial" font-size="15" font-weight="400" font-style="normal" 
>
<text fill="#000000" fill-opacity="1" stroke="none" xml:space="preserve" x="385" y="391" font-family="Arial" font-size="15" font-weight="400" font-style="normal" 
 >DS37</text>
</g>
</g>

<g  clip-path="url(#clip16)" 
>
<g fill="none" stroke="#000000" stroke-opacity="1" stroke-width="1" stroke-linecap="square" stroke-linejoin="bevel" transform="matrix(1,0,0,1,0,50)"
font-family="Arial" font-size="15" font-weight="400" font-style="normal" 
>
<text fill="#000000" fill-opacity="1" stroke="none" xml:space="preserve" x="394" y="412" font-family="Arial" font-size="15" font-weight="400" font-style="normal" 
 >32</text>
</g>
</g>

<g  clip-path="url(#clip16)" 
>
<g fill="none" stroke="#000000" stroke-opacity="1" stroke-width="1" stroke-linecap="square" stroke-linejoin="bevel" transform="matrix(1,0,0,1,0,50)"
font-family="Arial" font-size="15" font-weight="400" font-style="normal" 
>
<text fill="#000000" fill-opacity="1" stroke="none" xml:space="preserve" x="522" y="544" font-family="Arial" font-size="15" font-weight="400" font-style="normal" 
 >DS30</text>
</g>
</g>

<g  clip-path="url(#clip16)" 
>
<g fill="none" stroke="#000000" stroke-opacity="1" stroke-width="1" stroke-linecap="square" stroke-linejoin="bevel" transform="matrix(1,0,0,1,0,50)"
font-family="Arial" font-size="15" font-weight="400" font-style="normal" 
>
<text fill="#000000" fill-opacity="1" stroke="none" xml:space="preserve" x="531" y="565" font-family="Arial" font-size="15" font-weight="400" font-style="normal" 
 >26</text>
</g>
</g>

<g  clip-path="url(#clip16)" 
>
<g fill="none" stroke="#000000" stroke-opacity="1" stroke-width="1" stroke-linecap="square" stroke-linejoin="bevel" transform="matrix(1,0,0,1,0,50)"
font-family="Arial" font-size="15" font-weight="400" font-style="normal" 
>
<text fill="#000000" fill-opacity="1" stroke="none" xml:space="preserve" x="732" y="492" font-family="Arial" font-size="15" font-weight="400" font-style="normal" 
 >DS08</text>
</g>
</g>

<g  clip-path="url(#clip16)" 
>
<g fill="none" stroke="#000000" stroke-opacity="1" stroke-width="1" stroke-linecap="square" stroke-linejoin="bevel" transform="matrix(1,0,0,1,0,50)"
font-family="Arial" font-size="15" font-weight="400" font-style="normal" 
>
<text fill="#000000" fill-opacity="1" stroke="none" xml:space="preserve" x="741" y="513" font-family="Arial" font-size="15" font-weight="400" font-style="normal" 
 >24</text>
</g>
</g>

<g  clip-path="url(#clip16)" 
>
<g fill="none" stroke="#000000" stroke-opacity="1" stroke-width="1" stroke-linecap="square" stroke-linejoin="bevel" transform="matrix(1,0,0,1,0,50)"
font-family="Arial" font-size="15" font-weight="400" font-style="normal" 
>
<text fill="#000000" fill-opacity="1" stroke="none" xml:space="preserve" x="741" y="218" font-family="Arial" font-size="15" font-weight="400" font-style="normal" 
 >DS06</text>
</g>
</g>

<g  clip-path="url(#clip16)" 
>
<g fill="none" stroke="#000000" stroke-opacity="1" stroke-width="1" stroke-linecap="square" stroke-linejoin="bevel" transform="matrix(1,0,0,1,0,50)"
font-family="Arial" font-size="15" font-weight="400" font-style="normal" 
>
<text fill="#000000" fill-opacity="1" stroke="none" xml:space="preserve" x="750" y="239" font-family="Arial" font-size="15" font-weight="400" font-style="normal" 
 >43</text>
</g>
</g>

<clipPath id ="clip17" >
<rect x="0" y="0" height="709" width="1202" transform="matrix(1,0,0,1,0,50)" />
</clipPath>
<g  clip-path="url(#clip17)" 
>
<g fill="none" stroke="#000000" stroke-opacity="1" stroke-width="1" stroke-linecap="square" stroke-linejoin="bevel" transform="matrix(1,0,0,1,0,50)"
font-family="Arial" font-size="15" font-weight="400" font-style="normal" 
>
</g>
</g>

<clipPath id ="clip18" >
<rect x="0" y="0" height="709" width="1202" transform="matrix(1,0,0,1,0,50)" />
</clipPath>
<g  clip-path="url(#clip18)" 
>
<g fill="none" stroke="#000000" stroke-opacity="1" stroke-width="1" stroke-linecap="square" stroke-linejoin="bevel" transform="matrix(1,0,0,1,0,50)"
font-family="Arial" font-size="15" font-weight="400" font-style="normal" 
>
</g>
</g>

<clipPath id ="clip19" >
<rect x="0" y="0" height="708" width="1201" transform="matrix(1,0,0,1,0,50)" />
</clipPath>
<g  clip-path="url(#clip19)" 
>
<g fill="none" stroke="#000000" stroke-opacity="1" stroke-width="1" stroke-linecap="square" stroke-linejoin="bevel" transform="matrix(1,0,0,1,0,50)"
font-family="Arial" font-size="15" font-weight="400" font-style="normal" 
>
</g>
</g>

<clipPath id ="clip20" >
<rect x="0" y="0" height="709" width="1202" transform="matrix(1,0,0,1,0,50)" />
</clipPath>
<g  clip-path="url(#clip20)" 
>
<g fill="none" stroke="#000000" stroke-opacity="1" stroke-width="1" stroke-linecap="square" stroke-linejoin="bevel" transform="matrix(1,0,0,1,0,50)"
font-family="Arial" font-size="15" font-weight="400" font-style="normal" 
>
</g>
</g>

<clipPath id ="clip21" >
<rect x="0" y="0" height="708" width="1201" transform="matrix(1,0,0,1,0,50)" />
</clipPath>
<g  clip-path="url(#clip21)" 
>
<g fill="none" stroke="#000000" stroke-opacity="1" stroke-width="1" stroke-linecap="square" stroke-linejoin="bevel" transform="matrix(1,0,0,1,0,50)"
font-family="Arial" font-size="15" font-weight="400" font-style="normal" 
>
</g>
</g>

<clipPath id ="clip22" >
<rect x="0" y="0" height="709" width="1202" transform="matrix(1,0,0,1,0,50)" />
</clipPath>
<g  clip-path="url(#clip22)" 
>
<g fill="none" stroke="#000000" stroke-opacity="1" stroke-width="1" stroke-linecap="square" stroke-linejoin="bevel" transform="matrix(1,0,0,1,0,50)"
font-family="Arial" font-size="15" font-weight="400" font-style="normal" 
>
</g>
</g>

<clipPath id ="clip23" >
<rect x="0" y="0" height="709" width="1202" transform="matrix(1,0,0,1,0,50)" />
</clipPath>
<g  clip-path="url(#clip23)" 
>
<g fill="none" stroke="#000000" stroke-opacity="1" stroke-width="1" stroke-linecap="square" stroke-linejoin="bevel" transform="matrix(1,0,0,1,0,50)"
font-family="Arial" font-size="15" font-weight="400" font-style="normal" 
>
</g>
</g>

<clipPath id ="clip24" >
<rect x="0" y="0" height="708" width="1201" transform="matrix(1,0,0,1,0,50)" />
</clipPath>
<g  clip-path="url(#clip24)" 
>
<g fill="none" stroke="#000000" stroke-opacity="1" stroke-width="1" stroke-linecap="square" stroke-linejoin="bevel" transform="matrix(1,0,0,1,0,50)"
font-family="Arial" font-size="15" font-weight="400" font-style="normal" 
>
</g>
</g>

<clipPath id ="clip25" >
<rect x="0" y="0" height="709" width="1202" transform="matrix(1,0,0,1,0,50)" />
</clipPath>
<g  clip-path="url(#clip25)" 
>
<g fill="none" stroke="#000000" stroke-opacity="1" stroke-width="1" stroke-linecap="square" stroke-linejoin="bevel" transform="matrix(1,0,0,1,0,50)"
font-family="Arial" font-size="15" font-weight="400" font-style="normal" 
>
</g>
</g>

<clipPath id ="clip26" >
<rect x="0" y="0" height="708" width="1201" transform="matrix(1,0,0,1,0,50)" />
</clipPath>
<g  clip-path="url(#clip26)" 
>
<g fill="none" stroke="#000000" stroke-opacity="1" stroke-width="1" stroke-linecap="square" stroke-linejoin="bevel" transform="matrix(1,0,0,1,0,50)"
font-family="Arial" font-size="15" font-weight="400" font-style="normal" 
>
</g>
</g>

<clipPath id ="clip27" >
<rect x="0" y="0" height="709" width="1202" transform="matrix(1,0,0,1,0,50)" />
</clipPath>
<g  clip-path="url(#clip27)" 
>
<g fill="none" stroke="#000000" stroke-opacity="1" stroke-width="1" stroke-linecap="square" stroke-linejoin="bevel" transform="matrix(1,0,0,1,0,50)"
font-family="Arial" font-size="15" font-weight="400" font-style="normal" 
>
</g>
</g>

<clipPath id ="clip28" >
<rect x="0" y="0" height="709" width="1202" transform="matrix(1,0,0,1,0,50)" />
</clipPath>
<g  clip-path="url(#clip28)" 
>
<g fill="none" stroke="#000000" stroke-opacity="1" stroke-width="1" stroke-linecap="square" stroke-linejoin="bevel" transform="matrix(1,0,0,1,0,50)"
font-family="Arial" font-size="15" font-weight="400" font-style="normal" 
>
</g>
</g>

<clipPath id ="clip29" >
<rect x="0" y="0" height="708" width="1201" transform="matrix(1,0,0,1,0,50)" />
</clipPath>
<g  clip-path="url(#clip29)" 
>
<g fill="none" stroke="#000000" stroke-opacity="1" stroke-width="1" stroke-linecap="square" stroke-linejoin="bevel" transform="matrix(1,0,0,1,0,50)"
font-family="Arial" font-size="15" font-weight="400" font-style="normal" 
>
</g>
</g>

<clipPath id ="clip30" >
<rect x="0" y="0" height="709" width="1202" transform="matrix(1,0,0,1,0,50)" />
</clipPath>
<g  clip-path="url(#clip30)" 
>
<g fill="none" stroke="#000000" stroke-opacity="1" stroke-width="1" stroke-linecap="square" stroke-linejoin="bevel" transform="matrix(1,0,0,1,0,50)"
font-family="Arial" font-size="15" font-weight="400" font-style="normal" 
>
</g>
</g>

<clipPath id ="clip31" >
<rect x="0" y="0" height="708" width="1201" transform="matrix(1,0,0,1,0,50)" />
</clipPath>
<g  clip-path="url(#clip31)" 
>
<g fill="none" stroke="#000000" stroke-opacity="1" stroke-width="1" stroke-linecap="square" stroke-linejoin="bevel" transform="matrix(1,0,0,1,0,50)"
font-family="Arial" font-size="15" font-weight="400" font-style="normal" 
>
</g>
</g>

<clipPath id ="clip32" >
<rect x="0" y="0" height="709" width="1202" transform="matrix(1,0,0,1,0,50)" />
</clipPath>
<g  clip-path="url(#clip32)" 
>
<g fill="none" stroke="#000000" stroke-opacity="1" stroke-width="1" stroke-linecap="square" stroke-linejoin="bevel" transform="matrix(1,0,0,1,0,50)"
font-family="Arial" font-size="15" font-weight="400" font-style="normal" 
>
</g>
</g>

<clipPath id ="clip33" >
<rect x="0" y="0" height="709" width="1202" transform="matrix(1,0,0,1,0,50)" />
</clipPath>
<g  clip-path="url(#clip33)" 
>
<g fill="none" stroke="#000000" stroke-opacity="1" stroke-width="1" stroke-linecap="square" stroke-linejoin="bevel" transform="matrix(1,0,0,1,0,50)"
font-family="Arial" font-size="15" font-weight="400" font-style="normal" 
>
</g>
</g>

<clipPath id ="clip34" >
<rect x="0" y="0" height="708" width="1201" transform="matrix(1,0,0,1,0,50)" />
</clipPath>
<g  clip-path="url(#clip34)" 
>
<g fill="none" stroke="#000000" stroke-opacity="1" stroke-width="1" stroke-linecap="square" stroke-linejoin="bevel" transform="matrix(1,0,0,1,0,50)"
font-family="Arial" font-size="15" font-weight="400" font-style="normal" 
>
</g>
</g>

<clipPath id ="clip35" >
<rect x="0" y="0" height="709" width="1202" transform="matrix(1,0,0,1,0,50)" />
</clipPath>
<g  clip-path="url(#clip35)" 
>
<g fill="none" stroke="#000000" stroke-opacity="1" stroke-width="1" stroke-linecap="square" stroke-linejoin="bevel" transform="matrix(1,0,0,1,0,50)"
font-family="Arial" font-size="15" font-weight="400" font-style="normal" 
>
</g>
</g>

<clipPath id ="clip36" >
<rect x="0" y="0" height="708" width="1201" transform="matrix(1,0,0,1,0,50)" />
</clipPath>
<g  clip-path="url(#clip36)" 
>
<g fill="none" stroke="#000000" stroke-opacity="1" stroke-width="1" stroke-linecap="square" stroke-linejoin="bevel" transform="matrix(1,0,0,1,0,50)"
font-family="Arial" font-size="15" font-weight="400" font-style="normal" 
>
</g>
</g>

<clipPath id ="clip37" >
<rect x="0" y="0" height="709" width="1202" transform="matrix(1,0,0,1,0,50)" />
</clipPath>
<g  clip-path="url(#clip37)" 
>
<g fill="none" stroke="#000000" stroke-opacity="1" stroke-width="1" stroke-linecap="square" stroke-linejoin="bevel" transform="matrix(1,0,0,1,0,50)"
font-family="Arial" font-size="15" font-weight="400" font-style="normal" 
>
</g>
</g>

<g >
<g fill="none" stroke="#000000" stroke-opacity="1" stroke-width="1" stroke-linecap="square" stroke-linejoin="bevel" transform="matrix(1,0,0,1,0,50)"
font-family="Arial" font-size="15" font-weight="400" font-style="normal" 
>
</g>
</g>

<g >
<g fill="none" stroke="#333333" stroke-opacity="1" stroke-width="1" stroke-linecap="square" stroke-linejoin="bevel" transform="matrix(1,0,0,1,0,0)"
font-family="Arial" font-size="25" font-weight="400" font-style="normal" 
>
<text fill="#333333" fill-opacity="1" stroke="none" xml:space="preserve" x="4" y="32" font-family="Arial" font-size="25" font-weight="400" font-style="normal" 
 >Top 5 by leaves</text>
</g>
</g>

<clipPath id ="clip38" >
<rect x="0" y="0" height="127" width="140" transform="matrix(1,0,0,1,1394,50)" />
</clipPath>
<g  clip-path="url(#clip38)" 
>
<g fill="none" stroke="#333333" stroke-opacity="1" stroke-width="1" stroke-linecap="square" stroke-linejoin="bevel" transform="matrix(1,0,0,1,1394,50)"
font-family="Arial" font-size="25" font-weight="400" font-style="normal" 
>
</g>
</g>

<g  clip-path="url(#clip38)" 
>
<g fill="#ffffff" fill-opacity="1" stroke="none" transform="matrix(1,0,0,1,1394,50)"
font-family="Arial" font-size="25" font-weight="400" font-style="normal" 
>
<rect x="0" y="0" width="140" height="127"/>
</g>
</g>

<g  clip-path="url(#clip38)" 
>
<g fill="none" stroke="#333333" stroke-opacity="1" stroke-width="1" stroke-linecap="square" stroke-linejoin="bevel" transform="matrix(1,0,0,1,1394,50)"
font-family="Arial" font-size="15" font-weight="400" font-style="normal" 
>
<text fill="#333333" fill-opacity="1" stroke="none" xml:space="preserve" x="1" y="16" font-family="Arial" font-size="15" font-weight="400" font-style="normal" 
 >Name</text>
</g>
</g>

<g  clip-path="url(#clip38)" 
>
<g fill="#ffffff" fill-opacity="1" stroke="none" transform="matrix(1,0,0,1,1394,50)"
font-family="Arial" font-size="15" font-weight="400" font-style="normal" 
>
<rect x="3" y="21" width="14" height="14"/>
</g>
</g>

<g  clip-path="url(#clip38)" 
>
<g fill="#8cd17d" fill-opacity="1" stroke="none" transform="matrix(1,0,0,1,1394,50)"
font-family="Arial" font-size="15" font-weight="400" font-style="normal" 
>
<rect x="3" y="21" width="14" height="14"/>
</g>
</g>

<g  clip-path="url(#clip38)" 
>
<g fill="none" stroke="#333333" stroke-opacity="1" stroke-width="1" stroke-linecap="square" stroke-linejoin="bevel" transform="matrix(1,0,0,1,1394,50)"
font-family="Arial" font-size="15" font-weight="400" font-style="normal" 
>
<text fill="#333333" fill-opacity="1" stroke="none" xml:space="preserve" x="22" y="34" font-family="Arial" font-size="15" font-weight="400" font-style="normal" 
 >DS06</text>
</g>
</g>

<g  clip-path="url(#clip38)" 
>
<g fill="#ffffff" fill-opacity="1" stroke="none" transform="matrix(1,0,0,1,1394,50)"
font-family="Arial" font-size="15" font-weight="400" font-style="normal" 
>
<rect x="3" y="41" width="14" height="14"/>
</g>
</g>

<g  clip-path="url(#clip38)" 
>
<g fill="#f1ce63" fill-opacity="1" stroke="none" transform="matrix(1,0,0,1,1394,50)"
font-family="Arial" font-size="15" font-weight="400" font-style="normal" 
>
<rect x="3" y="41" width="14" height="14"/>
</g>
</g>

<g  clip-path="url(#clip38)" 
>
<g fill="none" stroke="#333333" stroke-opacity="1" stroke-width="1" stroke-linecap="square" stroke-linejoin="bevel" transform="matrix(1,0,0,1,1394,50)"
font-family="Arial" font-size="15" font-weight="400" font-style="normal" 
>
<text fill="#333333" fill-opacity="1" stroke="none" xml:space="preserve" x="22" y="54" font-family="Arial" font-size="15" font-weight="400" font-style="normal" 
 >DS08</text>
</g>
</g>

<g  clip-path="url(#clip38)" 
>
<g fill="#ffffff" fill-opacity="1" stroke="none" transform="matrix(1,0,0,1,1394,50)"
font-family="Arial" font-size="15" font-weight="400" font-style="normal" 
>
<rect x="3" y="61" width="14" height="14"/>
</g>
</g>

<g  clip-path="url(#clip38)" 
>
<g fill="#86bcb6" fill-opacity="1" stroke="none" transform="matrix(1,0,0,1,1394,50)"
font-family="Arial" font-size="15" font-weight="400" font-style="normal" 
>
<rect x="3" y="61" width="14" height="14"/>
</g>
</g>

<g  clip-path="url(#clip38)" 
>
<g fill="none" stroke="#333333" stroke-opacity="1" stroke-width="1" stroke-linecap="square" stroke-linejoin="bevel" transform="matrix(1,0,0,1,1394,50)"
font-family="Arial" font-size="15" font-weight="400" font-style="normal" 
>
<text fill="#333333" fill-opacity="1" stroke="none" xml:space="preserve" x="22" y="74" font-family="Arial" font-size="15" font-weight="400" font-style="normal" 
 >DS30</text>
</g>
</g>

<g  clip-path="url(#clip38)" 
>
<g fill="#ffffff" fill-opacity="1" stroke="none" transform="matrix(1,0,0,1,1394,50)"
font-family="Arial" font-size="15" font-weight="400" font-style="normal" 
>
<rect x="3" y="81" width="14" height="14"/>
</g>
</g>

<g  clip-path="url(#clip38)" 
>
<g fill="#b07aa1" fill-opacity="1" stroke="none" transform="matrix(1,0,0,1,1394,50)"
font-family="Arial" font-size="15" font-weight="400" font-style="normal" 
>
<rect x="3" y="81" width="14" height="14"/>
</g>
</g>

<g  clip-path="url(#clip38)" 
>
<g fill="none" stroke="#333333" stroke-opacity="1" stroke-width="1" stroke-linecap="square" stroke-linejoin="bevel" transform="matrix(1,0,0,1,1394,50)"
font-family="Arial" font-size="15" font-weight="400" font-style="normal" 
>
<text fill="#333333" fill-opacity="1" stroke="none" xml:space="preserve" x="22" y="94" font-family="Arial" font-size="15" font-weight="400" font-style="normal" 
 >DS37</text>
</g>
</g>

<g  clip-path="url(#clip38)" 
>
<g fill="#ffffff" fill-opacity="1" stroke="none" transform="matrix(1,0,0,1,1394,50)"
font-family="Arial" font-size="15" font-weight="400" font-style="normal" 
>
<rect x="3" y="101" width="14" height="14"/>
</g>
</g>

<g  clip-path="url(#clip38)" 
>
<g fill="#4e79a7" fill-opacity="1" stroke="none" transform="matrix(1,0,0,1,1394,50)"
font-family="Arial" font-size="15" font-weight="400" font-style="normal" 
>
<rect x="3" y="101" width="14" height="14"/>
</g>
</g>

<g  clip-path="url(#clip38)" 
>
<g fill="none" stroke="#333333" stroke-opacity="1" stroke-width="1" stroke-linecap="square" stroke-linejoin="bevel" transform="matrix(1,0,0,1,1394,50)"
font-family="Arial" font-size="15" font-weight="400" font-style="normal" 
>
<text fill="#333333" fill-opacity="1" stroke="none" xml:space="preserve" x="22" y="114" font-family="Arial" font-size="15" font-weight="400" font-style="normal" 
 >DS41</text>
</g>
</g>

<g >
<g fill="none" stroke="#333333" stroke-opacity="1" stroke-width="1" stroke-linecap="square" stroke-linejoin="bevel" transform="matrix(1,0,0,1,1394,50)"
font-family="Arial" font-size="15" font-weight="400" font-style="normal" 
>
</g>
</g>

<clipPath id ="clip39" >
<rect x="0" y="0" height="43" width="173" transform="matrix(1,0,0,1,1211,50)" />
</clipPath>
<g  clip-path="url(#clip39)" 
>
<g fill="none" stroke="#333333" stroke-opacity="1" stroke-width="1" stroke-linecap="square" stroke-linejoin="bevel" transform="matrix(1,0,0,1,1211,50)"
font-family="Arial" font-size="15" font-weight="400" font-style="normal" 
>
</g>
</g>

<g  clip-path="url(#clip39)" 
>
<g fill="#ffffff" fill-opacity="1" stroke="none" transform="matrix(1,0,0,1,1211,50)"
font-family="Arial" font-size="15" font-weight="400" font-style="normal" 
>
<rect x="0" y="0" width="173" height="43"/>
</g>
</g>

<g  clip-path="url(#clip39)" 
>
<g fill="none" stroke="#333333" stroke-opacity="1" stroke-width="1" stroke-linecap="square" stroke-linejoin="bevel" transform="matrix(1,0,0,1,1211,50)"
font-family="Arial" font-size="15" font-weight="400" font-style="normal" 
>
<text fill="#333333" fill-opacity="1" stroke="none" xml:space="preserve" x="1" y="16" font-family="Arial" font-size="15" font-weight="400" font-style="normal" 
 >Count of Leave Data.csv</text>
</g>
</g>

<clipPath id ="clip40" >
<rect x="2" y="19" height="18" width="84" transform="matrix(1,0,0,1,1211,50)" />
</clipPath>
<g  clip-path="url(#clip40)" 
>
<g fill="none" stroke="#333333" stroke-opacity="1" stroke-width="1" stroke-linecap="square" stroke-linejoin="bevel" transform="matrix(1,0,0,1,1211,50)"
font-family="Arial" font-size="15" font-weight="400" font-style="normal" 
>
</g>
</g>

<clipPath id ="clip41" >
<rect x="2" y="19" height="18" width="84" transform="matrix(1,0,0,1,1211,50)" />
</clipPath>
<g  clip-path="url(#clip41)" 
>
<g fill="none" stroke="#333333" stroke-opacity="1" stroke-width="1" stroke-linecap="square" stroke-linejoin="bevel" transform="matrix(1,0,0,1,1211,50)"
font-family="Arial" font-size="15" font-weight="400" font-style="normal" 
>
</g>
</g>

<g  clip-path="url(#clip41)" 
>
<g fill="#d8d8d8" fill-opacity="1" stroke="none" transform="matrix(1,0,0,1,1211,50)"
font-family="Arial" font-size="15" font-weight="400" font-style="normal" 
>
<circle cx="44" cy="28" r="40" />
</g>
</g>

<g  clip-path="url(#clip41)" 
>
<g fill="none" stroke="#b2b2b2" stroke-opacity="1" stroke-width="2" stroke-linecap="butt" stroke-linejoin="bevel" transform="matrix(1,0,0,1,1211,50)"
font-family="Arial" font-size="15" font-weight="400" font-style="normal" 
>
<circle cx="44" cy="28" r="40" />
</g>
</g>

<clipPath id ="clip42" >
<rect x="0" y="0" height="43" width="173" transform="matrix(1,0,0,1,1211,50)" />
</clipPath>
<g  clip-path="url(#clip42)" 
>
<g fill="none" stroke="#b2b2b2" stroke-opacity="1" stroke-width="2" stroke-linecap="butt" stroke-linejoin="bevel" transform="matrix(1,0,0,1,1211,50)"
font-family="Arial" font-size="15" font-weight="400" font-style="normal" 
>
</g>
</g>

<g  clip-path="url(#clip42)" 
>
<g fill="none" stroke="#333333" stroke-opacity="1" stroke-width="1" stroke-linecap="square" stroke-linejoin="bevel" transform="matrix(1,0,0,1,1211,50)"
font-family="Arial" font-size="15" font-weight="400" font-style="normal" 
>
<text fill="#333333" fill-opacity="1" stroke="none" xml:space="preserve" x="89" y="34" font-family="Arial" font-size="15" font-weight="400" font-style="normal" 
 >149</text>
</g>
</g>

<g >
<g fill="none" stroke="#333333" stroke-opacity="1" stroke-width="1" stroke-linecap="square" stroke-linejoin="bevel" transform="matrix(1,0,0,1,1211,50)"
font-family="Arial" font-size="15" font-weight="400" font-style="normal" 
>
</g>
</g>
</g>
</svg>
